<?xml version="1.0" encoding="utf-8"?>
<!-- Generator: Adobe Illustrator 27.8.0, SVG Export Plug-In . SVG Version: 6.00 Build 0)  -->
<svg version="1.1" id="Livello_1" xmlns="http://www.w3.org/2000/svg" xmlns:xlink="http://www.w3.org/1999/xlink" x="0px" y="0px"
	 viewBox="0 0 933.3 240" style="enable-background:new 0 0 933.3 240;" xml:space="preserve">
<style type="text/css">
	.st0{fill:#369A76;}
	.st1{fill:#359875;}
</style>
<g id="g10" transform="matrix(1.3333333,0,0,-1.3333333,0,240)">
	<g id="text14" transform="matrix(1,0,0,-1,197.2197,45.9082)">
		<path id="path184" class="st0" d="M35.4-83.6h15.3v58.4c0,11.7-2.4,20.1-7.2,25.3C38.8,5.4,32.2,8,23.8,8C14,8,6.7,5.4,2.1,0.4
			c-4.5-5.2-6.8-13-6.8-23.4v-60.6h16.2v57.8c0,7,0.9,12,2.8,14.8c1.9,2.7,5,4.1,9.4,4.1c4.2,0,7.2-1.5,9-4.4
			c1.8-3,2.7-7.8,2.7-14.5V-83.6z"/>
		<path id="path186" class="st0" d="M93.6,6.4v-39.1c0-4.7-0.6-8-1.7-9.9s-3-2.8-5.7-2.8c-2.2,0-4.2,0.7-5.8,2.1
			c-1.6,1.4-2.8,3.1-3.5,5.1V6.4H61.7v-64.3h12.2l1.8,7.5h0.4c1.5-2.5,3.6-4.6,6.3-6.3c2.7-1.8,6.1-2.7,10.4-2.7
			c2.6,0,4.8,0.4,6.8,1.2c2.1,0.8,3.8,2.1,5.1,3.9c1.4,1.7,2.4,4.1,3.1,7.1c0.7,2.9,1,6.6,1,10.9V6.4H93.6z"/>
		<path id="path188" class="st0" d="M120.7-57.9H136V6.4h-15.3V-57.9z M118.9-76c0-2.6,0.8-4.7,2.4-6.3c1.6-1.7,3.9-2.6,6.9-2.6
			c3,0,5.4,0.8,7.2,2.4s2.7,3.8,2.7,6.4c0,2.7-0.9,4.8-2.7,6.3s-4.2,2.3-7.2,2.3s-5.3-0.8-6.9-2.3C119.7-71.3,118.9-73.4,118.9-76
			L118.9-76z"/>
		<path id="path190" class="st0" d="M178.1,6.4V-31c0-5.4-0.4-9.1-1.3-11.2c-0.9-2.1-2.5-3.2-5-3.2c-2.1,0-3.8,0.7-5.1,2.1
			c-1.3,1.3-2.3,2.9-3,4.8v45h-15.3v-64.3h11.8l1.9,7.7h0.4c1.6-2.7,3.6-4.8,6-6.6c2.5-1.8,5.7-2.7,9.8-2.7c3.3,0,6,0.7,8.1,2.2
			c2.1,1.5,3.8,4,5,7.7c1.6-3.1,3.8-5.5,6.4-7.2c2.7-1.8,5.8-2.7,9.4-2.7c2.8,0,5.2,0.4,7.2,1.2c2.1,0.7,3.7,1.9,4.9,3.7
			c1.3,1.8,2.2,4.3,2.8,7.5c0.6,3.1,0.9,7,0.9,11.8V6.4h-15.3v-39.1c0-4.4-0.4-7.6-1.2-9.6c-0.8-2.1-2.5-3.1-5.1-3.1
			c-2.1,0-3.9,0.6-5.3,1.9c-1.3,1.2-2.2,2.9-2.8,5V6.4H178.1z"/>
		<path id="path192" class="st0" d="M233.8-54c2.6-1.5,5.8-2.8,9.6-3.7c3.9-0.9,8.2-1.4,13.1-1.4c7.3,0,12.3,1.9,15.2,5.7
			c2.9,3.8,4.4,9.1,4.4,16.1c0,4-0.1,8-0.4,12c-0.2,3.9-0.3,7.7-0.4,11.4s0,7.3,0.1,10.8c0.3,3.4,0.9,6.7,1.8,9.8h-12.5l-2.4-7.8
			h-0.5c-1.4,2.5-3.3,4.5-5.8,6.2c-2.5,1.6-5.6,2.4-9.4,2.4c-5.1,0-9-1.7-12-5c-2.9-3.4-4.4-8-4.4-13.6c0-7.7,2.7-13.2,8.2-16.5
			c5.5-3.3,12.9-4.6,22.3-4.1c0.4-5,0.1-8.6-1-10.8c-1-2.2-3.3-3.3-6.8-3.3c-2.6,0-5.2,0.3-8,0.9c-2.7,0.6-5.2,1.5-7.3,2.6L233.8-54
			z M252.2-5.8c2.3,0,4.2-0.6,5.7-1.7c1.5-1.2,2.5-2.5,3.2-3.9V-22c-2-0.3-3.9-0.3-5.7-0.1c-1.8,0.2-3.4,0.6-4.8,1.2
			c-1.4,0.6-2.5,1.5-3.3,2.7c-0.8,1.1-1.2,2.6-1.2,4.4c0,2.7,0.5,4.7,1.5,6C248.8-6.5,250.3-5.8,252.2-5.8L252.2-5.8z"/>
		<path id="path194" class="st0" d="M317.1-42.7c-2.1-0.8-3.9-1.2-5.7-1.2c-2.3,0-4.3,0.6-6,1.9c-1.6,1.3-2.7,3.1-3.3,5.4v43h-15.3
			v-64.3h11.7l1.8,7.7h0.5c1.1-2.8,2.7-5,4.8-6.6c2.1-1.6,4.6-2.4,7.3-2.4c2.1,0,4.1,0.4,6,1.3L317.1-42.7z"/>
		<path id="path196" class="st0" d="M362.4,3c-2.1,1.7-4.7,3-7.7,3.9s-6,1.3-9,1.3c-4.4,0-8.1-0.8-11.1-2.3
			c-2.9-1.6-5.3-3.9-7.2-6.8c-1.9-3-3.3-6.6-4.1-10.7c-0.8-4.2-1.2-8.9-1.2-14c0-11.2,2-19.7,6-25.3c4-5.7,9.9-8.5,17.8-8.5
			c3.9,0,7,0.3,9.4,1c2.5,0.7,4.7,1.5,6.6,2.6l-3.6,12.7c-1.5-0.8-3-1.3-4.5-1.7c-1.4-0.4-3-0.6-5-0.6c-3.6,0-6.3,1.6-8.1,4.8
			c-1.8,3.1-2.7,8.1-2.7,15.1c0,5.8,0.9,10.6,2.7,14.3c1.9,3.7,4.8,5.5,8.9,5.5c2.1,0,3.9-0.3,5.4-0.8c1.5-0.6,3-1.3,4.2-2.2
			L362.4,3z"/>
		<path id="path198" class="st0" d="M365.5-25.7c0-11.4,2.2-19.9,6.7-25.5s10.7-8.4,18.7-8.4c8.6,0,15,2.8,19.2,8.5
			s6.3,14.1,6.3,25.3c0,11.5-2.2,20-6.7,25.6C405.2,5.3,399,8,390.9,8C373.9,8.1,365.5-3.2,365.5-25.7z M381.3-25.7
			c0,6.4,0.7,11.4,2.2,14.9s3.9,5.3,7.3,5.3c3.3,0,5.7-1.5,7.2-4.5c1.6-3.1,2.4-8.3,2.4-15.7c0-6.6-0.7-11.6-2.2-15.1
			c-1.5-3.4-3.9-5.1-7.5-5.1c-3,0-5.4,1.5-7.1,4.6C382.1-38.3,381.3-33.1,381.3-25.7z"/>
		<path id="path200" class="st0" d="M457,6.4v-39.1c0-4.7-0.6-8-1.7-9.9s-3-2.8-5.7-2.8c-2.2,0-4.2,0.7-5.8,2.1
			c-1.6,1.4-2.8,3.1-3.5,5.1V6.4H425v-64.3h12.2l1.8,7.5h0.4c1.5-2.5,3.6-4.6,6.3-6.3c2.7-1.8,6.1-2.7,10.4-2.7
			c2.6,0,4.8,0.4,6.8,1.2c2.1,0.8,3.8,2.1,5.1,3.9c1.4,1.7,2.4,4.1,3.1,7.1c0.7,2.9,1,6.6,1,10.9V6.4H457z"/>
		<path id="path202" class="st0" d="M484.1-57.9h15.3V6.4h-15.3V-57.9z M482.3-76c0-2.6,0.8-4.7,2.4-6.3c1.6-1.7,3.9-2.6,6.9-2.6
			s5.4,0.8,7.2,2.4c1.8,1.6,2.7,3.8,2.7,6.4c0,2.7-0.9,4.8-2.7,6.3c-1.8,1.5-4.2,2.3-7.2,2.3s-5.3-0.8-6.9-2.3
			C483.1-71.3,482.3-73.4,482.3-76z"/>
	</g>
</g>
<g>
	<path class="st1" d="M210.3,74.8c0.3,0,0.2-1.5-0.3-2.7c-0.3-0.8-1.5-2-1.7-1.8C208,70.4,210,74.8,210.3,74.8z"/>
	<path class="st1" d="M213.5,82.9c0,0.6,2,1.4,2.3,2.4s0.2,2.6,0.7,3.1c0.4,0.4,2.6,0.9,3.6,1.4s2.5,1.7,2.6,1.4
		c0.1-0.3-0.6-3.2-1.4-3.5c-0.8-0.3-4.9-2.3-4.7-2.6c0.2-0.3,3.3,0.6,3.1,0c-0.1-0.6,0-4,0.9-4.6c0.9-0.7-0.3,3.2,0,3.7
		s2.1,4,2.5,3.8c0.3-0.2,0.1-2.3,0.5-2.6c0.4-0.3,1.5-1.1,1.1-1.6s-2-0.3-2.2-0.6c-0.2-0.3,0-1.9-0.3-2.7c-0.3-0.8-1.4-2-2.1-2.1
		c-0.7,0-2-0.7-2.4-1s-1.4,0.5-1.7,0.9s-0.5,2.3-0.7,3.2C215,81.7,213.5,82.3,213.5,82.9z M216.8,78.5c0.3-0.1,2,1.2,2,3
		c0.1,1.8-0.9,0.3-1.4-0.2C217,80.8,216.3,78.7,216.8,78.5z"/>
	<path class="st1" d="M206.7,75c0.3-0.2-0.4-1.8-1.7-2.3c-1.3-0.6-3.3-0.1-3.3,0.4c0,0.7,0.6,1.5,1.2,1.8
		C203.4,75.2,206.4,75.2,206.7,75z"/>
	<path class="st1" d="M202.8,71.3c0-0.4-2.5-1.4-2.3-1.8c0.2-0.5,0.5-0.5,1-0.4s1.2,0.8,1.5,0.7c0.3-0.1,0.7-0.9,1.1-0.4
		c0.5,0.5,1.7,3.1,2.2,3.4c0.5,0.2,0.8-0.1,1.1,0.1s0.4,0.7,0.8,0.7c0.3-0.1,0-1.9-1-2.8s0.2-1,0.3-1.2s-0.3-0.9-1.5-1.2
		c-1.2-0.3-3.5-1.6-4.2-1.6s-0.9,1.1-1.4,1c-0.7-0.2-2.1-0.5-2.7,0c-0.6,0.5,0.3,1.4,0.8,1.9c0.5,0.6-0.5,1.8,0.3,2.2
		C199.6,72.2,202.8,71.8,202.8,71.3z"/>
	<path class="st1" d="M222.2,93.7c0.7-0.3,1.2-1,0.6-1.7c-0.6-0.7-4.4-1.8-5.3-2.2c-0.7-0.3-1.6-1.2-2.2-1.7c0.7,1,1.3,2,2,3
		c1,0.3,2.1,0.7,2.4,1C220.1,92.5,221.6,94,222.2,93.7z"/>
	<path class="st1" d="M213.4,85.6c0.1,0.1,0.2,0.2,0.3,0.3C213.6,85.8,213.5,85.7,213.4,85.6z"/>
	<path class="st1" d="M221,97.1c-0.2-1.6-1.4-3.2-2.4-3.5c0.8,1.5,1.6,3.1,2.3,4.7C221,98,221,97.5,221,97.1z"/>
	<path class="st1" d="M222.8,103.3c0.1,0.2,0.1,0.5,0.2,0.7c0.1-0.1,0.2-0.3,0.3-0.3C223.4,103.6,223.2,103.4,222.8,103.3z"/>
	<path class="st1" d="M224.4,87.7c0,0.7-1,1.9-0.5,2.2c0.6,0.3,1.3-1.5,1.4-2.1c0-0.6-0.3-2.6-0.7-2.6
		C224.2,85.3,224.4,87,224.4,87.7z"/>
	<path class="st1" d="M211.8,80.6c0.1-0.3,1,0.1,1.4-0.2c0.4-0.3-1.1-2.2-0.7-2.2c0.3,0,1.7,0.3,1.8-0.2s-0.8-0.4-1.3-0.7
		c-0.5-0.3-1-1.7-1.7-1.4c-0.7,0.4,0,1.7,0,2.4c0,0.7-1,1.2-1.4,1.9c-0.3,0.5-0.1,1.1,0.2,1.7c0.2,0.3,0.5,0.5,0.7,0.8
		c0.4,0.3,0.8,0.5,1,0.5C212.4,83,211.8,81,211.8,80.6z"/>
	<path class="st1" d="M205.3,168.5v0.4l-1.5-0.1v1.1h1.4v0.4h-1.4v1.3l1.6,0.1v0.4l-2.1-0.1l0.1-3c-0.3,0.2-0.6,0.4-0.9,0.7
		l-0.1,2.3h-0.5l0.1-1.9c-0.7,0.5-1.5,1-2.2,1.5l0,0l1.6,0.1v0.4l-2.1-0.1v-0.1c-1.7,1-3.4,1.9-5.2,2.7c7.6,0.5,19.6,0.5,21.2,0.1
		c2.3-0.5,21.8-18.1,23.2-19.9c1.2-1.5,1.1-2.2-0.2-4.8c-0.8-1.7-0.9-4.6-1.5-4.9c-0.3-0.2-2.4-0.5-4.1,1.7
		c-4.6,5.8-13.8,14.6-17.1,16.8c-0.8,0.6-3.8,1.2-7.5,1.5c-1.3,1.2-2.6,2.4-4.1,3.5L205.3,168.5z M235.1,150.1l2.4,2.6l-0.4,0.3
		l-2.4-2.6L235.1,150.1z M232.5,152.6l2.1,0.5c0.5,0.1,0.9,0.2,1.3,0.4l0,0c-0.4-0.3-0.7-0.6-1-1l-1-1.1l0.3-0.3l2.4,2.6l-0.4,0.3
		l-2.1-0.5c-0.5-0.1-0.9-0.2-1.3-0.4l0,0c0.3,0.3,0.6,0.6,1,1l1,1.1l-0.3,0.3l-2.4-2.6L232.5,152.6z M230.3,154.6
		c0.7-0.7,1.7-0.6,2.5,0.2c0.8,0.9,0.7,1.9,0,2.6c-0.7,0.7-1.7,0.6-2.5-0.2C229.5,156.3,229.6,155.3,230.3,154.6z M228.1,156.6
		c0.3-0.3,0.6-0.4,0.8-0.5l0.2,0.4c-0.2,0.1-0.4,0.2-0.6,0.4c-0.6,0.6-0.7,1.4-0.1,2.1c0.6,0.6,1.4,0.7,2,0.1
		c0.2-0.2,0.4-0.5,0.5-0.7l0.3,0.2c-0.1,0.2-0.3,0.5-0.6,0.8c-0.8,0.7-1.8,0.8-2.6-0.1C227.2,158.5,227.3,157.4,228.1,156.6z
		 M225.3,159.3c0.4-0.3,0.7-0.5,1-0.5c0.2,0,0.5,0.1,0.7,0.3c0.3,0.3,0.3,0.8,0.1,1.1l0,0c0.3-0.1,0.6-0.1,0.9,0.1
		c0.4,0.3,0.7,0.5,0.9,0.5l-0.4,0.3c-0.1,0-0.4-0.2-0.8-0.5c-0.4-0.3-0.7-0.3-1,0l-0.3,0.3l1.1,1.1l-0.4,0.3l-2.4-2.6
		C224.9,159.8,225.1,159.5,225.3,159.3z M223.3,161.2l3.4,1.7l-0.4,0.3l-1.1-0.5l-1,0.9l0.5,1.1l-0.4,0.3l-1.5-3.5L223.3,161.2z
		 M217.3,164.7l2.3,1.2c0.6,0.3,1.1,0.6,1.6,0.9l0,0c-0.2-0.5-0.5-1-0.8-1.6l-1-2.4l0.6-0.6l3.7,3.5l-0.5,0.5l-1.6-1.5
		c-0.5-0.5-1.1-1.1-1.6-1.5l0,0c0.3,0.6,0.5,1.2,0.8,1.9l1,2.4l-0.4,0.4l-2.3-1.2c-0.7-0.4-1.3-0.7-1.8-1l0,0c0.4,0.5,1,1.1,1.5,1.7
		l1.4,1.7l-0.5,0.4l-3.2-4L217.3,164.7z M214.7,168.7c1,0,1.7,0.8,1.6,1.9c0,1.2-0.8,1.8-1.8,1.8s-1.7-0.8-1.6-1.9
		C213,169.4,213.7,168.7,214.7,168.7z M208.9,168.6h0.6l0.6,1.7c0.1,0.4,0.2,0.8,0.3,1.2l0,0c0.1-0.4,0.3-0.7,0.4-1.2l0.7-1.7h0.6
		l0.1,3.6h-0.5v-1.6c0-0.5,0-1.1,0-1.5l0,0c-0.1,0.4-0.3,0.8-0.5,1.3l-0.7,1.7h-0.4l-0.6-1.7c-0.2-0.5-0.3-1-0.4-1.4l0,0
		c0,0.4-0.1,1-0.1,1.6l-0.2,1.5h-0.5L208.9,168.6z M206,168.5h0.5l-0.1,3.2l1.6,0.1v0.4l-2.1-0.1L206,168.5z"/>
	<path class="st1" d="M208.1,77.9c0.3,0.4,0.8,0.8,1.3,0.2c0.5-0.6,0-2.5-0.6-2.7s-4.4,0-4.6,0.4c-0.1,0.1-0.1,0.2-0.1,0.3
		c0.3,0.2,0.6,0.5,0.9,0.7c0.8,0,2.1-0.3,2.6-0.3C208.3,76.8,207.7,77.5,208.1,77.9z"/>
	<path class="st1" d="M188.7,179.8c0.3,0.9,0.5-1.5,2.6-1.1c1.2,0.2-0.1-1.2-2.2-2.5c-0.9,0.3-1.8,0.5-2.7,0.8
		C187.6,178.2,188.6,179.4,188.7,179.8z"/>
	<path class="st1" d="M226.7,159.4c-0.3-0.3-0.7-0.2-1.1,0.1c-0.2,0.2-0.3,0.3-0.3,0.4l0.9,1l0.4-0.3
		C226.9,160.1,227,159.7,226.7,159.4z"/>
	<path class="st1" d="M232.5,157c0.6-0.5,0.4-1.3-0.1-1.9c-0.5-0.5-1.3-0.8-1.9-0.2c-0.6,0.5-0.4,1.3,0.1,1.9
		C231.2,157.3,232,157.5,232.5,157z"/>
	<path class="st1" d="M225.2,105.6c0.2-0.7-0.1-2.3,0.1-2.7c0.3-0.4,1.1-1.2,0.4-1.4c-0.6-0.2-2.1,0.1-2.2,0.5
		c-0.1,0.4,0.2,0.7,0.4,1.3c0.1,0.2-0.3,0.8-0.7,1.7c0.2,0.8,0.4,1.5,0.6,2.3C224.5,106.7,225.1,106,225.2,105.6z"/>
	<path class="st1" d="M223.9,162.1c-0.2-0.1-0.4-0.2-0.6-0.3l0,0c0.1,0.2,0.2,0.4,0.3,0.6l0.4,1l0.8-0.8L223.9,162.1z"/>
	<path class="st1" d="M223.1,96.9c-0.8-0.7-1.5,1-1.4,1.5c0,0.1-0.1,0.5-0.3,0.9c0.3,0.8,0.6,1.5,0.9,2.3
		C223,100.6,223.5,97.2,223.1,96.9z"/>
	<path class="st1" d="M229.5,115.6c0.1,0.3,0.3,0.9,0.7,0.9c0.9,0.1,1-3.6-0.3-4.2c-0.4-0.2-1.5,1.5-1.4,2.2
		C228.5,115.1,229.3,115.2,229.5,115.6z"/>
	<path class="st1" d="M227.8,123c-0.4,0-0.3,1,0,1.1s1-0.2,1.1-0.4C228.9,123.5,228.2,123,227.8,123z"/>
	<path class="st1" d="M224.5,109.3h-0.1c0,0.1,0,0.2,0.1,0.3C224.6,109.5,224.7,109.3,224.5,109.3z"/>
	<path class="st1" d="M228,109.7c-0.4-0.4-0.5-2-1.6-2.1c-0.3,0,0.2,2.6,0.7,3.3c0.5,0.7,2.3,0.7,2.2,0.1
		C229.2,110.5,228.3,110.1,228,109.7z"/>
	<path class="st1" d="M229.2,126.9c-0.1,0.5-0.1,1.2,0.1,1.3c0.3,0.1,3-2.8,3.3-2.6c0.2,0.3-0.5,1.3-1.1,1.9
		c-0.6,0.7-0.7,2.3-0.3,2.6c0.4,0.2,1.3-0.1,1.3,0.2s-1,0.8-1,1.4c0,0.6,0.3,1.8,0.3,1.9c0,0.1-0.3,0.9,0.4,0.9
		c0.6,0,1.7-0.4,1.6-0.7c-0.1-0.4-0.9-0.7-0.8-1.2c0.1-0.5,1.5-2.4,1.6-2.7c0-0.3-0.5-1-0.4-1.7s0.8-3.1,0.6-3.4
		c-0.3-0.3-1.9-1.1-2.8-0.9C231,124.1,229.3,126.4,229.2,126.9z"/>
	<path class="st1" d="M225.3,97.7c0.1,1.5,0.9,2.4,1.7,2.8c0.8,0.3-0.2,1.5-0.4,2.7s1.2,2.3,1,2.8s-0.3,2,1.6,3.5
		c0.6,0.5,1.2,2.1,1.5-0.2c0.2-2.3-2.1-2.7-2.1-3.3c0-0.6,0.8-1,1-1.8c0.2-0.7-0.4-3-1.2-4c-1.8-2.1-0.4-1.1,0-1.2s0.5-2.4-0.1-3.3
		c-0.5-0.9-1.6-3-0.4-4.1c1.2-1.1,0.6,1.5,0.6,1.8s0.5,2.4,0.9,2.4c0.4,0.1,0.6-0.6,0.7-1.2c0.1-0.6,0.9-0.7,0.2,1.5
		c-0.7,2.1-0.4,5.6,0.4,6.6c0.8,0.9,1.6-1.2,1.7-1.7c0-0.4,0.6,0.4,0,1.5c-0.6,1-2.1,4.1-1.5,5.6c0.6,1.4,1.6,1.2,1.6,1.2
		s-0.5,0.7-0.6,1.4c-0.1,0.7-0.8,1.5-0.2,2.4c0.5,1,0.6,0.8,0.2,2.5c-0.4,1.7-0.2,1.8,0.6,0.7c0.9-1.1,0.7-1.8,1.6-2.6
		c0.8-0.9,0.7-0.9,0.1-0.9c-0.5,0-2-0.8-1.2-1.3c0.7-0.5,2.9-2.9,2-4c-0.8-1.1-2.5,0.1-2.5,0.4s-0.3-1.7,0.2-2.1
		c0.6-0.5,1.1-1.9,1.1-3.1s0.4-2.7-0.6-4.7c-1-1.9-1.5-5.2-2.3-5.7c-0.2-0.1-1.3,0.4-1.5,0.1c-0.3-0.3-0.3-3-1.4-3
		c-1.1,0-1.7,0.3-2.3,1c-0.5,0.7,0.2,1.7-0.9,2.8C222.9,95,225.2,96.2,225.3,97.7z"/>
	<path class="st1" d="M227.4,114.3c-0.4-1-1.7-2.5-2-2.1c-0.5,0.5,1.1,4.9,1.6,5S227.8,115.3,227.4,114.3z"/>
	<path class="st1" d="M226.5,130.6c0.3-0.3-0.1-1.3,0-1.8s0.9-1,0.9-1.5c0-0.4-1-0.4-1.4-0.2c-0.3,0.2-0.2,1.6-0.7,2.7
		c0,0.4-0.1,0.7-0.1,1.1C225.5,131.1,226.3,130.8,226.5,130.6z"/>
	<path class="st1" d="M225.8,119.1C225.7,119.1,225.7,119,225.8,119.1c-0.1,0.3-0.1,0.7-0.1,1.1C225.9,119.8,226,119.4,225.8,119.1z
		"/>
	<path class="st1" d="M221.2,145.6c0.6,1,1,0.2,1.8-0.5s1.5-2.5,1.6-3.2s-0.8-2.9-0.5-3.2s0.4,1.8,0.9,1.7s1.2-2.8,1.4-3.7
		c0.1-0.9,0-2.4,0.4-2.5s0.8,0,1.2-0.4s0.2-0.4,0.4,0.4c0.3,0.8-1.5,3.7-1.3,4.1c0.2,0.4,2,0.1,2,0.3c0.1,0.2-2.4,0.2-3.1,1.4
		c-0.5,0.7,0,1.6,0,2.1s-2.4,2.8-2.5,3.2c0,0.4,0.7,0.7,1.2,0.7s-1.7,1.4-2.2,1.7s-1,0.8-1.9,1.5c-1,0.7-2.3,3.1-2.2,3.2
		c0.1,0.1,1.2-0.1,1.8-0.4c0.6-0.3,0.9-1.8,1.7-2.4c0.8-0.6,3.9-1.4,4.1-2.4c0.1-0.4,0.4-1,0.6-1.7c0.2-0.7-0.4-1.7,0.7-2.6
		c1.5-1.2,4.2-3.9,3.9-5.4c-0.2-1-1.2-1.6-0.9-2.4c0.3-0.8-0.2-3.5-1-3.6c-0.7-0.1-0.8,0.5-1.7,0.9c-0.8,0.4-1.3,0.7-1.7,1.4
		c-0.4,0.8-1,1.1-1.2,0.9c-0.1-0.1-0.2-0.2-0.2-0.3C223.8,138.3,222.6,142,221.2,145.6L221.2,145.6z"/>
	<path class="st1" d="M218.7,155.4c0-0.2-1.1-0.7-2.1-1c-0.9,1.4-1.8,2.7-2.7,4c0,0,0,0.1,0.1,0.1
		C214.5,158.7,218.8,155.8,218.7,155.4z"/>
	<path class="st1" d="M220.2,149.1c0.4-0.5,0.5-1.5,0.5-2.4c-0.5,1.1-1,2.2-1.6,3.2C219.6,149.7,220,149.4,220.2,149.1z"/>
	<path class="st1" d="M214.6,172c0.8,0,1.2-0.6,1.2-1.4c0-0.7-0.3-1.5-1.1-1.5s-1.2,0.7-1.2,1.4C213.4,171.3,213.8,172,214.6,172z"
		/>
	<path class="st1" d="M117.3,100.9c-0.7,6.5-0.1,11.5,1.1,14.9s2.7,5.5,2.7,5.5s-2.3-5.1-2.2-14.3c0.1-9.2,1.7-10.2,1.7-10.2
		s-1.2,9.9-0.8,14.5c0.7,8.4,2.8,10.2,2.8,10.2s-0.6-1.9-1-3.6c-0.2-0.8,0.3-4.1,0.5-7.6c0.2-3.8,0.2-7.9,0.5-9.8
		c1.2-6.3-1-10.4-1-10.4S118.1,94.4,117.3,100.9z"/>
	<path class="st1" d="M157.1,178.7c-0.3,0.6,1.9,0.2,2.7,0.4c0.9,0.1,2.3,1.5,3.1,0.2c0.3-0.4,1.1-1.1,2-1.9
		c-1.4-0.3-2.7-0.7-4.1-1.1C159,177.3,157.3,178.4,157.1,178.7z"/>
	<path class="st1" d="M155.4,180.8c-0.7,0.7,2.8,2.5,3.7,2.5s1.8-1.5,1.2-2.3C159.6,180.2,156.1,180,155.4,180.8z"/>
	<path class="st1" d="M118.7,127.2c0,0-1.3,5,2.5,11.2s7.8,7.9,7.8,7.9s-4.3-5.8-6.1-8.3c-1.4-2-1.9-4.4-2.3-5.6
		c1.2,2,4.5,7.3,6,9.2c0.4,0.6,0.9,1.1,1.3,1.6c-0.9-2.5-1.7-5.2-2.3-7.9C121.6,129.7,118.7,127.2,118.7,127.2z"/>
	<path class="st1" d="M123.1,147.8c1.2,1,4.7,3.4,4.5,2.6c-0.4-1.7-3-3.4-3.8-4s-3.9-1.5-3.5-0.7C120.6,146.2,122,146.8,123.1,147.8
		z"/>
	<path class="st1" d="M141.9,171.7c1-0.1,1.5-0.7,1.5-1.6c-0.1-0.8-0.6-1.3-1.6-1.3c-0.2,0-0.4,0.1-0.6,0.1l0.2,2.8
		C141.5,171.8,141.7,171.8,141.9,171.7z"/>
	<path class="st1" d="M131.5,162.2c0.3-0.3,0.2-0.7-0.2-1.1c-0.2-0.2-0.3-0.2-0.4-0.3l-0.8,1l0.4,0.3
		C130.8,162.5,131.2,162.5,131.5,162.2z"/>
	<path class="st1" d="M127.3,152.3c-3.1-2.8-7.2-4.8-8.2-5.5c-1.6-1.3-1.6,1.9-2.3,3.4c-1.4,2.6-3.3,2.9-1.7,4.6
		c0.8,0.8,21.1,17.9,22.6,18.4c1.5,0.4,11.2,1.1,12.7,1.1c0.4,0,2-0.2,4.3-0.4c-1.5-0.7-3-1.5-4.4-2.4l0,0c-0.2,0.1-0.6,0.2-1.1,0.3
		c-0.6,0-1-0.1-1.4-0.4c-0.3-0.3-0.6-0.7-0.6-1.3c0-0.3,0-0.5,0.1-0.7c-0.3-0.2-0.6-0.4-0.9-0.7l-1.4,0.1l0.1,1.1l1.4-0.1v0.4
		l-1.4,0.1l0.1,1.3l1.6-0.1v0.4l-2.1,0.1l-0.2-3.6l1.4-0.1c-1.7-1.3-3.3-2.7-4.8-4.2c-0.4-0.1-0.7-0.1-1-0.2
		C136.4,163.1,130.3,155,127.3,152.3z M117.7,153.8c-0.8-0.7-1.1-1.7,0-2.9l2-2.3l0.5,0.5l-2,2.3c-0.7,0.9-0.7,1.6-0.1,2
		c0.6,0.5,1.3,0.5,2-0.4l2-2.3l0.5,0.4l-1.9,2.3C119.6,154.7,118.6,154.6,117.7,153.8z M121.8,157.3l0.3-2.1
		c0.1-0.5,0.1-0.9,0.3-1.4l0,0c-0.3,0.4-0.5,0.7-0.9,1.1l-1,1.2l-0.3-0.3l2.3-2.7l0.4,0.3l-0.3,2.1c-0.1,0.5-0.1,0.9-0.3,1.3l0,0
		c0.3-0.4,0.6-0.7,0.9-1.2l1-1.1l0.3,0.3l-2.3,2.7L121.8,157.3z M122.9,158.2l2.3-2.7l0.4,0.3l-2.3,2.7L122.9,158.2z M124.5,159.6
		l1.4-3.5l0.4,0.3l-0.7,1.7c-0.2,0.5-0.4,0.9-0.6,1.3l0,0c0.4-0.2,0.8-0.5,1.2-0.7l1.6-0.9l0.4,0.3L125,160L124.5,159.6z
		 M127.9,162.5l-1.6-1.4l2.3-2.7l1.5,1.3l-0.3,0.3l-1.2-1l-0.7,0.9l1.1,0.9l-0.2,0.3l-1.1-0.9l-0.8,1l1.2,1.1L127.9,162.5z
		 M130.2,164.6l-0.4-0.3c0-0.1,0.2-0.4,0.4-0.8c0.2-0.4,0.2-0.7-0.1-1l-0.3-0.3l-1,1.2l-0.4-0.3l2.3-2.7c0.2,0.1,0.5,0.3,0.7,0.6
		c0.4,0.3,0.6,0.6,0.6,0.9c0,0.2,0,0.5-0.2,0.7c-0.3,0.4-0.7,0.4-1.1,0.2l0,0c0.2,0.3,0.1,0.6-0.1,0.9
		C130.4,164.1,130.3,164.4,130.2,164.6z M131.2,165.5c-0.3-0.2-0.5-0.6-0.6-0.8l0.4-0.2c0.1,0.2,0.2,0.5,0.5,0.7
		c0.4,0.3,0.8,0.3,1,0.1s0.2-0.5-0.1-1c-0.3-0.6-0.4-1-0.1-1.4c0.4-0.4,1-0.4,1.5,0.1c0.3,0.2,0.4,0.5,0.5,0.7l-0.3,0.2
		c0-0.1-0.2-0.4-0.4-0.6c-0.4-0.3-0.7-0.2-0.9-0.1c-0.2,0.3-0.2,0.5,0.1,1c0.3,0.6,0.4,1,0,1.4C132.5,166,131.9,166.1,131.2,165.5z
		 M132.8,166.8l2.3-2.7l0.4,0.3l-2.3,2.7L132.8,166.8z M134.4,168.1l2.1-2.4l-0.9-0.7l0.3-0.3l2.1,1.8l-0.3,0.3l-0.9-0.7l-2.1,2.4
		L134.4,168.1z M137.8,171.1l-0.4-0.3l0.4-1.1l-1-0.9l-1,0.6l-0.4-0.3l3.3-1.9l0.4,0.4L137.8,171.1z M139.3,167.4l-0.3-0.3l-0.1-0.9
		l0.4,0.4L139.3,167.4z M141.7,168.5c0.7,0,1.2,0.1,1.5,0.3c0.4,0.3,0.6,0.7,0.6,1.2c0,0.6-0.1,1.1-0.4,1.4
		c-0.3,0.4-0.9,0.6-1.6,0.6c-0.3,0-0.6,0-0.9,0l-0.2-3.5C141,168.6,141.3,168.5,141.7,168.5z"/>
	<path class="st1" d="M149.2,171.2c0.3,0,0.5-0.1,0.6-0.1V171c-0.7-0.5-1.4-0.9-2.1-1.4c0,0.1,0,0.2,0,0.3
		C147.7,170.8,148.3,171.3,149.2,171.2z"/>
	<path class="st1" d="M138.1,168l-1,0.5l0.9,0.7l0.4-1c0.1-0.2,0.2-0.4,0.3-0.6l0,0C138.5,167.8,138.3,167.9,138.1,168z"/>
	<path class="st1" d="M151.6,69.7c-1.4-1.2-3.6,0.9-6.9,3.6c-2.5,2.1-3.5,4.1-3.8,4.9c-0.1,0.3-0.1,0.4-0.1,0.4s2.6-2.2,4.8-4.7
		s4.2-2.6,4.2-2.6s-2.8,2.7-4.9,4.8c-2.1,2.1-4.7,4.6-4.7,4.6s0.3,0,0.9-0.2c3.1-3.1,6.6-5.8,10.4-8
		C152.6,71.1,152.5,70.5,151.6,69.7z"/>
	<path class="st1" d="M245.4,93c-3.7-8.8-8.9-16.4-15.6-22.8c-6.6-6.4-14.5-11.4-23.6-15s-19-5.4-29.7-5.4s-20.6,1.9-29.7,5.7
		c-9.1,3.8-17,9-23.6,15.4c-5.2,5-9.4,10.8-12.9,17.2c0-0.3,0-0.5,0-0.8c0-11.2-3.7-20.2-11.1-27.2S80.7,49.7,66,49.7
		c-12,0-23.1,3-33.2,9C22.6,64.7,13.3,72.6,5,82.4c1.9,2.5,4.2,3.8,6.7,3.8c0.9,0,1.7-0.2,2.4-0.7c0.7-0.5,1.3-0.9,1.8-1.3
		c7.1-5.5,13.5-9.4,19.3-11.8s11.8-3.5,18-3.5c9.2,0,15.7,2.6,19.4,7.8c3.7,5.2,5.6,11.3,5.6,18.4c0,5.9-1.3,11.9-4,17.9
		c-2.7,6.1-6.9,12.6-12.7,19.5c-5.8,7-13.3,14.5-22.6,22.6S18.3,172.4,5,182.6v7.1h65.8c6.8,0,13.2,0.2,18.9,0.6
		c5.8,0.4,10.6,0.6,14.5,0.6c1.5,0,2.6-0.2,3.2-0.6c0.6-0.4,1.2-1.4,1.6-2.9c1.3-5.1,2.7-10.4,4.3-15.9c0.6-2,1.2-4,1.9-6
		c2.1,2.9,4.4,5.6,7,8c6.4,6.3,14.2,11.1,23.4,14.5s19.5,5.1,30.8,5.1s21.6-1.8,30.8-5.4c9.2-3.6,17-8.7,23.4-15.1
		c6.4-6.5,11.4-14,14.9-22.6s5.3-17.9,5.3-27.9C251,111.5,249.1,101.8,245.4,93z M108.1,157.9c-2.4,5.1-5,8.5-7.9,10.1
		c-2.9,1.7-6.5,2.5-10.8,2.5H35.2c14.3-9.6,26.3-18.2,36-25.9c9.6-7.6,17.3-14.7,23.1-21.2c3.3-3.7,6.1-7.3,8.3-10.8
		c-0.4,3.1-0.6,6.2-0.6,9.4c0,10.6,1.8,20.2,5.3,28.9c0.7,1.7,1.5,3.3,2.3,5C109,156.5,108.5,157.1,108.1,157.9z M240.1,153.9
		c-0.9,2.4-4,4.1-6.5,6.4c-2.5,2.3-14.2,14.3-18.3,15.4c-2,0.5-21.1,0-22.4,0.3c-1.3,0.4,1,0.6,2.9,2.8c1.8,2.2,2.8,3.4,0.5,4.4
		s-4.7,1.8-7.5-1.4c-1.3-1.4-2.5-3-3.8-4.4c-3.2,0.7-6.5,1.1-9.9,1.1c-2.6,0-5.2-0.2-7.7-0.6c-1.4,1.4-2.8,2.8-3.7,3.9
		c-2.2,2.6-4.3,3.7-5.9,2.3c-1.6-1.4-5.6-4.2-3.9-5.2c1.1-0.6,3.8-2.2,5.2-3.3c-0.8-0.3-1.6-0.6-2.3-0.9c-0.9,0.1-1.9,0.2-3,0.3
		c-2.7,0.4-12.8,0.1-15.8-0.5c-2.7-0.5-14.8-10.8-18.5-14c-2.7-2.3-8.1-5.9-6.1-7.8c4-3.7,1.8-8.3,4.7-8.3c5.5-0.1,9.3,1.5,11.4,8
		c0.4,1.1,6,7.4,6.8,8.2c1.2,1.1,2.3,2.1,3.9,2.5c-3.7-3.8-6.8-8.3-9.3-13.2c-4.6-3.9-8.8-8.3-10.5-11.3c-3-5.2-4.4-12.6-2.5-13.2
		c1.6-0.5,5.6,4.1,7,5.7c-0.2-1.2-0.3-2.4-0.4-3.7c-0.3-0.5-0.6-1-1.1-1.6c-2.6-3.2-6.5-4.7-7.4-17.5c-0.8-11.8,4.3-20.3,6-20.3
		c0.8,0,2.3,3.9,2.3,3.9s1.6-13.8,7.8-17.9c2-1.4,1.1,2.6,1.2,3.7c0.2,1.1,0.6,1.6,0.6,1.6s2.1-4.4,5.1-7.3c7.6-7.6,12-6.2,12-6.2
		s0.3,1.5-0.2,2.7c0,0,0.8-0.1,1.6,0.7c0.5,0.5,1.1,1,0.5,2.6c6.7-3.6,14.1-5.6,22-5.6s15.3,2,22,5.5c-0.3-1,0.1-1.5-0.4-2.2
		c-0.6-0.8-1.2-1.8-0.5-2.8c1-1.4,2.6-0.3,3.7-1c0.4-0.3,1.7-1.7,2.5-0.8c1.1,1.2,3.3,1.7,5.3,2.7c2.9,1.5,3.1,4.5,4.2,4.7
		c1.2,0.1,1.8,1,2.9,1.9c1.2,0.9,3.7,2.8,4.5,2.6c0.8-0.1,1.2-1.2,2.1,0.1c1,1.2,1.8,4.5,2.5,4.8c0.7,0.4,0.9-2,1.5-0.9s1,5.4,2,6.3
		c0.9,0.9,3.3,3.7,4.4,4c1.1,0.2,1,0.7,1.2,2c0.1,1.2,1.3,3.5,2,4.7s0.3,5.9,0.5,6.9s1.9,4.2,1.2,5.4c-0.7,1.2-1.7,1.5-1.3,1.7
		s1.6,1,0.4,2.6c-1.2,1.6-4.3,6.4-3.6,7.2c0.7,0.9-0.2,1.8,1.7,1.1c1.9-0.7,3,0.4,2.9,2.4s-0.7,3.1-0.4,4.8s-0.9,1.5-1.1,3.4
		c-0.2,1.9-2.3,3.4-2.5,4.6c-0.1,1.2-1.7,3.2-2.6,4.8c-0.9,1.6-1.6,1.7-1.8,3.1c-0.1,1.5-0.6,2.6-2.8,3.4c-2.2,0.9-2.3,1.4-2.3,2.3
		c0,0.4-2.3,1.7-2.8,3.5c-0.4,1.3,0.2,1.6-1.3,2.6c-0.3,0.2-4.3,2.3-7.4,3.8c-0.7,0.8-1.4,1.6-2.1,2.3c2.2-0.3,4.2-0.6,5-0.9
		c1.5-0.6,8.1-7.2,13.9-13.2c1.5-1.6,2-3.3,3-4.6c1.4-1.8,3.7-1.9,4.7-1.9c2.4,0.1,2.5,3.9,2.8,5.1
		C239.4,151.7,240.9,151.6,240.1,153.9z"/>
	<path class="st1" d="M137.8,81.1c-0.7,0-1.9,0.9-1.9,0.9s-2.2,3.9-3,5.2c-0.7,1.2-2.1,5.1-2.1,5.1l0.1,2c0,0,2.6-6.2,3.8-8.8
		c1.2-2.6,2.1-3,2.1-3s-0.5,2.6-1.8,4.5c-0.5,0.8-0.9,1.7-1.3,2.6c1.3-2,2.8-3.9,4.3-5.7C138.3,82,138.3,81.1,137.8,81.1z"/>
	<path class="st1" d="M128.9,93.6c0,0-1.3,4.8-2.9,8c-1.2,2.5-1.3,4.5-1.9,7.2s-1.2,8.5-0.1,12.3c0.1,0.2,0.1,0.4,0.2,0.7
		c0-2.1,0.1-4.2,0.4-6.3c0.2-5,1.2-11,2.3-13.2C128.2,99.9,129.7,95.6,128.9,93.6z"/>
	<path class="st1" d="M137.6,79.3c0,0,3.8-4.3,6.2-6.6c2.5-2.3,4.7-3.1,5.3-3.8c0.6-0.6,0.9-2.6,0.9-2.6s-2.8,0-4.8,1.6
		s-5.1,3.2-5.7,5c-0.6,1.8,1.3-0.1,2.7-1.4c1.3-1.3,4.8-3.3,4.8-3.3s-0.9,0.6-3.6,3.3c-2.7,2.7-4.7,4.5-6.2,6.5
		C135.5,80.3,137.6,79.3,137.6,79.3z"/>
	<path class="st1" d="M131.4,83.7c1.5-5.8,1.3-9,1-8.6c-0.3,0.3-1.9,1.9-3.8,5.7c-1.9,3.9-2.6,7-2.6,7s-0.5,2.6,0,1s1.4-2.9,2.3-4.9
		c1-2.1,1.6-3.9,1.6-3.9s0.4,2.1-0.7,4.1c-1.1,2-1.7,4.7-2.8,8.7c-1.1,4-2.1,6.1-2.1,6.1l-0.2,2c0,0,1.9-3.5,3-6.1
		C128.3,92.2,129.9,89.5,131.4,83.7z"/>
	<path class="st1" d="M191.9,182.9c1.8,0.5,3.6-0.2,3.6-1.1c0-0.9-1.8-2-2.6-2C190.9,179.8,190.2,182.4,191.9,182.9z"/>
	<path class="st1" d="M139.8,120.4L139.8,120.4L139.8,120.4c0.3,2.5,0.9,4.9,1.7,7.3c1.7,4.9,4.4,9.2,7.7,12.8
		c0.4,0.5,0.8,1,1.3,1.4h0.1c5.7,5.5,13,8.9,20.9,9.8c0.1,0,0.2,0.1,0.2,0.1h0.1c5,0.5,10.3,0,15.4-1.7
		c11.9-4.1,20.2-13.8,23.1-25.2v-0.1v0.1c0.3-1.2,0.6-2.5,0.7-3.8V121v-0.1c0.7-5.4,0.3-11-1.6-16.6c-2.6-7.6-7.5-13.7-13.6-17.9
		v-0.1c-0.1-0.1-0.2-0.1-0.3-0.2c-9-6.1-20.7-8-31.7-4.2C147.4,87.6,137.7,103.9,139.8,120.4z M141.6,116c0.5-1.7,1.1-3.5,2-5.3
		c1.2,3,3.9,5.4,7.6,7c-2.3,3.8-3.7,7.7-4.2,11.3C142.5,125.6,140.4,120.9,141.6,116z M179.4,145.8c-5.5,1.3-10.2,1.4-14.3,0.8
		c-3.1-2.5-3.7-6-2.6-10c5.4,0.5,11.5-0.1,18.1-2.1C176.5,138.5,175.7,143.2,179.4,145.8z M160.8,133.8c-4.8-0.5-8.8-1.9-11.9-3.7
		c0.5-3.7,2.1-7.7,4.7-11.6c5.7,1.8,13.2,1.9,21-0.1C167.6,122.8,162.7,128.4,160.8,133.8z M187.1,133.3c6.5-3.3,13.2-2.3,14.5,1.9
		c-2.7,2.3-5.9,4.5-9.8,6.3c-3.4,1.5-6.5,2.7-9.4,3.5C177.8,142.3,178.8,137.5,187.1,133.3z M186.7,129.7
		c-8.6,3.3-16.5,4.6-23.1,4.3c2.6-5.5,8.4-11.2,15.9-15c11.2-5.8,20.4-5.9,25.5-3.3C201.9,120.8,196.2,126.1,186.7,129.7z
		 M155,116.4c3.5-4.5,8.5-8.8,14.8-12c10.8-5.6,20.6-7.2,27.5-6.5c-1.7,5.7-7.4,11.9-15.8,15.4C171.6,117.5,162,118.2,155,116.4z
		 M168.6,99.4c-7.3,1.6-11.7-0.2-12.5-3.6c2-1.6,4.3-3,6.7-4.3c4.1-2.1,10.9-5.1,18-5.9C184.8,89.7,179.7,97,168.6,99.4z
		 M167.3,102.3c-6.4,3.5-11.4,8.2-14.8,13.3c-3.9-1.6-6.6-4.1-7.4-7.5c2.2-3.6,5.1-7.3,8.9-10.6
		C155.1,101.3,160.1,103.5,167.3,102.3z M142.8,127.2c-0.1-0.3-0.2-0.6-0.2-0.8c1,1.7,2.5,3.3,4.3,4.7c-0.1,1.8,0.1,3.4,0.5,4.9
		C145.5,133.3,143.9,130.4,142.8,127.2z M148.7,132.3c3.1,1.9,6.9,3.4,11.4,4.1c-0.7,3.6-0.1,6.9,2,9.7c-4.2-1.1-7.6-3-10.4-5.1
		C149.6,138.7,148.6,135.7,148.7,132.3z M196.6,143.3c-2.9,2.3-6.2,4.1-9.9,5.4c-1.3,0.4-2.6,0.8-4,1.1c-6.6,0.6-11.4-0.1-14.8-1.4
		c6.8,0.6,14.9-0.7,24.3-5.3c3.4-1.7,6.7-4,9.5-6.6C200.1,140.2,199.5,141.1,196.6,143.3z M201.8,138.3c0.6-1.1,0.6-1.8,0.8-2.7
		c1.8-1.7,2.7-2.9,4.1-4.8C205.3,133.5,203.8,135.9,201.8,138.3z M207.6,128.5c-1.4,2-3,3.9-5.1,5.8c0.3-3.8-3.5-6.2-8.8-5.8
		c5.7-3.6,9.9-7.9,12.4-12.2c2.2,1.5,3.4,3.6,3.3,5.9C209,124.4,208.4,126.5,207.6,128.5z M209.9,118c-0.6-1.4-1.5-2.6-2.8-3.7
		c1.3-2.8,1.8-5.4,1.5-7.8C209.7,110.3,210.2,114.2,209.9,118z M207,102.2c1.3,2.4,1.3,6.7-0.9,11.3c-3.8-2.5-9.9-3.4-17.8-1.2
		c5.4-4,9.2-9.4,10.4-14.2C202.8,98.7,205.7,100.2,207,102.2z M205.7,99.4c-1.2-1.6-3.5-2.9-6.6-3.6c0.2-2.7-0.4-5.1-2.2-6.8
		C200.4,91.8,203.5,95.3,205.7,99.4z M197.8,95.5c-5.4-0.9-12.8-0.3-21.1,2.6c4.8-3.7,8-9.1,6.1-12.7c4.3-0.2,8.5,0.5,12.3,2.8
		C197.3,90,198.2,92.6,197.8,95.5z M188.6,84.1c-2.3-0.4-4.7-0.5-7.1-0.3c-1.6-1.3-4.5-2.2-8.8-2.2C178.2,81.1,183.7,82,188.6,84.1z
		 M154,88.9c-1.8,1.6-3.3,3.1-4.7,4.6C150.7,91.9,152.3,90.3,154,88.9z M156.5,87.1c2.3-1.5,4.9-2.8,7.7-3.8
		c0.2-0.1,0.4-0.1,0.6-0.2c6.6-1,11.2-0.4,14,1c-6.6,1-12.9,3.5-16.6,5.4c-7.9,4.1-13.7,10-17.3,15.9
		C144.9,100.5,148.4,94.3,156.5,87.1z M143.7,102.4c-0.8,2.2-1,4.3-0.7,6.2c-0.9,1.8-1.5,3.5-2,5.2
		C141.3,109.9,142.2,106,143.7,102.4z"/>
	<path class="st1" d="M183.5,174.3v-0.2c1.9,0.2,4,1.1,5.6,2.1c1.6-0.5,3.1-1.1,4.7-1.8c-2.9-0.2-5.2-0.4-6-0.8
		c-3-1.2-3.9-0.9-3.4-2.6c0.5-1.7-0.6-5.8-1.4-6.7c-0.8-0.9-1.4-1.1,0.3-1s3.5,0.1,11.3,1.2c4.3,0.8,9.3,0.7,13.4,0.4
		c0.4-0.4,0.9-0.8,1.3-1.3c-5.4,0.7-11.8,1.1-1.4-0.7c0.3-0.1,1.8-0.8,3.6-1.6c0.8-1,1.7-2,2.4-3c-0.5-0.5,0.1-3.2,0.7-3.9
		c0.3-0.4,1.2-0.3,2-0.1c0.9-1.4,1.8-2.9,2.5-4.5c-0.5,0.3-1.1,0.5-1.2,0.3c-0.3-0.2,0.7-3.2,0.9-3.5c0.2-0.4,1.2-1.1,1.1-1.9
		c-0.1-0.7-0.3-1.9,0.2-1.6c0.5,0.3,1.2,1.3,1.2,0.3s-0.7-3-0.7-4.1c0-1,0.4-1,1.1-1.4c0.7-0.4,1.4-1.1,0.9-1.8
		c-0.5-0.8-1.5-2-0.6-2.3c0.8-0.2,1.8-0.5,2.6,0.4c0.2-1.2,0.4-2.3,0.6-3.5c-0.2-0.1-0.2-0.3,0-0.7c0.1-0.1,0.1-0.2,0.2-0.4
		c0.3-2.5,0.5-5,0.5-7.5c0-0.7,0-1.4,0-2.1c-0.2,0.4-0.6,0.8-0.8,0.8c-0.4,0-0.9-1.3-0.8-1.7c0.1-0.4,1-0.8,1.6-0.3
		c-0.2-3.2-0.6-6.3-1.2-9.4c-0.2,0.2-0.6,0.5-0.8,0.7c-0.5,0.4-1.7,0.9-2.2-0.4c-0.4-0.9,1-3.3,1.9-4.9c-0.1-0.3-0.2-0.7-0.3-1
		c-0.7,0.8-2.2,2.6-2.5,2.4c-0.3-0.3-0.8-2.4-0.9-3.3c0-0.6,1.1-2.5,1.7-3.7c-0.1-0.3-0.3-0.7-0.4-1c-0.2,1.1-0.9,1.9-1.1,2.1
		c-0.3,0.3-0.8,0.4-0.7-0.8c0.1-1.2-0.3-3.6-0.8-3.6s0.2,4.6-0.4,4.7c-0.4,0-2-1.8-1.7-2.7c0.3-1,0.8-2.4,0.7-3s0.4-1.5,1.4-1.5
		c0.1,0,0.3,0,0.4,0.1c-0.5-0.9-0.9-1.7-1.4-2.5c-0.7-0.2-1.4-0.5-1.7-0.7c-0.6-0.6-1.3-2.5-0.9-2.7c0.1,0,0.3,0.2,0.6,0.4
		c-0.5-0.7-1-1.5-1.6-2.2v0.1c0.1,0.7-1.4,1.2-1.8,0.8c-0.4-0.4-0.6-1.7-0.1-1.9c0.3-0.1,1.1,0.2,1.6,0.6c-0.8-1-1.6-1.9-2.4-2.9
		c-0.3-0.2-0.5-0.5-0.7-0.8c-1.6-1.8-3.4-3.4-5.2-4.9c-0.3,0-0.6,0-0.7-0.1c-0.2-0.2-0.3-0.4-0.2-0.6c-2.2-1.7-4.6-3.3-7.1-4.6
		c0,0.1,0.1,0.3,0.1,0.5c0.5,1.4,1.9,1.9,2.7,2.3s1.3,1.8,2.5,2.9c1.2,1.2,2.6,0.6,4.3,1.9s1,1.9,2.2,3.1s-0.4,2.1,1.5,3.8
		c1.8,1.7,1.1,2.3-0.1,3.9c-1.2,1.7,3.9,3.1,5.3,3.9c1.4,0.9,0.3,2.5-0.5,3.1c-0.8,0.7-2-0.6-1.2,0.9c0.7,1.5-0.4,4.4-0.2,6
		s6.1,7.6,7.2,8.9c1.1,1.3-0.1,4.2,2.9,8.4c3,4.2,1.7,5.1,0.9,6.4c-0.8,1.2-2.6,1.2-3.4,2.3c-0.7,1.1-0.8,2.9-1.4,2.6
		c-0.6-0.3-2.4,2.3-1.8,1.4c0.7-1,2-2.5,1.7-3.7c-0.4-1.2-0.5-2.8-0.5-4.7c0-1.9-1.7-1.8-3.4-1.2c-1.8,0.6-1.2,2.1-3.2,2.5
		c-2.1,0.5-1.9,2.6-2.4,4.3c-0.6,1.7-1.9,1.7-2.1,2.6c-0.3,1,2.4,6.3,3.6,7.7c1.2,1.4,0.4,1.7-1.1,4.2s-2.7,1-4.2,2.4
		c-1.5,1.5-5.1,8.7-6.8,9.3c-1.8,0.6-2.1-1.3-3.5-2.2c-1.5-0.9-10.3,4.3-12.3,5.8s-3.2,0.3-4.7-1s-2.7,0-5.8,1.2
		c-3,1.2-4.2-0.7-5.4-2.3c-1.2-1.7-9.8-5.2-10.6-4.7c-0.3,0.2-2.5,1-2.1,2.4s-4.4-1.6-4.4-1.6c-1.1-0.7-4.4-6.6-7.3-8.9
		c-2.9-2.3-4.8-3.1-4.8-3.1s2.7-5.6,2-10.8s-1.3-7.9-1.9-7.9c-0.6,0-1.1,1-1.1,0.7c0-1.1-2.3-6.4-3.2-6.4s-2.7,5.4-3.1,7.8
		c-0.4,2.3-0.7,5.1,0.6,8.1c1.3,2.9,1.8,6.3,1.8,6.3s-4-7-5.5-13.4c-0.7-3.1-1.3-5-0.9-5.6c1.5-1.8,1-2.2,1-2.2s0.7-1.8,1.9-4.7
		c1.2-2.9,4.3-10.2,5.6-13.1c1.6-3.6,0.6-7.8,0.6-7.8s0.9-1.7,1.6-4.4c0.7-2.7,0.8-4.9,0.8-4.9s5.9-2.9,10.9-8.5
		c1.9-2.1,2.8-3.5,3.2-4.5c-0.5,0.3-1.1,0.6-1.6,0.9c-0.7,0.8-1.9,1.9-3.6,3.5c-3.3,3-5.6,4.1-6.8,4.5c-1,1-1.9,2-2.9,3.1
		c-0.1,0.8-0.1,1.7-0.2,2.8c-0.2,3.4-2.5,6.2-3.7,5.9c-1.2-0.2-1.2-0.2-1.2-0.2s0.3-1.3,0.9-2.7c-4.9,7.5-8.2,16.5-9.2,26.1
		c0,0.5,0,0.9,0,1.4c0,5.2,4.8,17.7,4.8,17.7s-1.3-0.7-1.8-1.2s-0.5-1.7-0.7-3.8c-0.2-1.9-1.5-4.3-2.6-7.8c0,0.1,0,0.2,0,0.4
		c0,1.7,0.1,3.4,0.2,5.1c1.3,2.2,0.9,3.5,0.9,4.2c0,0-0.2-0.2-0.5-0.6c0.2,1.4,0.5,2.8,0.8,4.2c0.4,0.5,0.8,1,1.1,1.6
		c4.6,6.7,8.3,14.3,8.3,14.3s-3.2-3.2-7.2-8c0.8,2.3,1.8,4.5,2.9,6.7c1.8,1.5,3.7,2.9,5.6,4.1c1.6,1,3.1,1.9,4.6,2.5
		c2.3,1,2.6,1.7,4.8,2.9c0.9,0.5,8.9,1.3,8.2,3.5c-0.4,1-9.8,0.3-12.3,0.3c-0.6,0-1.1-0.1-1.6-0.2c0.3,0.3,0.6,0.6,0.9,0.9
		c8.7,1.3,30.1-1.7,31.6-0.3c0.7,0.7,3.1,5.9,1.5,6.9c-1.2,0.8-12.9,2.3-19.4,3.1c0.7,0.3,1.3,0.6,2,0.9c1.2-0.1,2.3-0.1,3.1-0.1
		c0.5,0,0.1,0.4-0.7,1.1c0.6,0.2,1.3,0.5,1.9,0.7c2.2-1.3,4.6-2.5,5.1-2.5c0.9,0,2.8-0.5,3-0.1c0.1,0.4-2.2,2.2-4,3.7
		c0.8,0.2,1.6,0.3,2.3,0.5c1.9-1.8,3.9-3.5,5-4c2-0.9,1.7,1.2,4.6,0.8c2.9-0.4,0.7-0.7,3.4-0.4c1.5,0.2,3,1.5,4.6,3.1
		c0.5-0.1,1-0.2,1.5-0.4C185.4,175.9,184.2,174.8,183.5,174.3z M213.4,91.9c-0.8-0.4-1.7-2.1-1.6-2.2c0.1-0.1,4.3,2.1,4.2,2.7
		C216,93,214.2,92.4,213.4,91.9z M219.1,107.6c-0.1,0.1-1.2-1.3-2.3-1.7c-1.1-0.4-2.1-2.5-1.7-3c0.4-0.5,1-2.3,0.8-2.7
		c-0.2-0.4,1.8,1.5,2.2,1.9c0.7,0.7,1.1,2.7,0.8,2.7c-0.3,0.1-2.6-1.1-2.6-0.9s1.4,0.7,2,1.6C218.8,106.4,219.2,107.5,219.1,107.6z
		 M222.7,115.6c-0.4-0.4-0.4-3.9-0.1-4c0.8-0.1,0.6,2.2,0.8,2.6s0.5,0.3,0.8,0.3c0.2,0,0.4,0.6,0.2,1.2
		C224.2,116.4,223.1,116,222.7,115.6z M223.3,129.8c0.6,0.5,0.2,2.5-0.3,2.2C222.5,131.6,223,129.5,223.3,129.8z M212,158.9
		c-1,1.5-2.4,1.1-3.3,2c-0.9,1-1.2,1.3-2,1.5s-8.1,1-8-0.4c0.1-1.3,6.1-1.7,7.6-3.1c1.5-1.4,3.8-6.5,5.2-5.8
		C212.9,153.8,213,157.4,212,158.9z M206.2,156c-0.1-0.6,0.4-1.5,1.2-1.5c0.8-0.1,0.5,1.8,0,2.1C206.8,156.8,206.3,156.6,206.2,156z
		 M212.6,153c-0.7-0.1-1.7-1.3-0.8-2c0.6-0.5,2.1-0.1,2.1,0.4C213.9,151.9,213.3,153.2,212.6,153z M216.4,148.6
		c-0.4,0.6-1,1-1.5,0.5s0.1-1.1,0.6-1.6C215.9,147,216.7,148,216.4,148.6z M218.3,135.7c0.3-0.3,1.1,1.9,0.2,2.9
		c-1,0.9-2.4,1.5-2.5,1.4s0.4-1.7,0.9-2.3C217.7,136.9,218,136.1,218.3,135.7z M214.8,129.9c0.6-0.4-0.2-2-0.1-2.8
		c0.1-0.8,1.5-2.2,2.4-2c0.9,0.1,0.6,2,1.1,4.4s-1.1,3.9-1.7,3.3c-0.4-0.4,0.3-3.7,0.1-4c-0.2-0.2-0.6,5.2-1.8,3.5
		C213.8,130.9,214.1,130.4,214.8,129.9z M211.8,134.9c0.3-0.3,0.7-2.5,0.3-3.2c-0.5-0.7-0.1-2.6,0.6-3c0.5-0.2,0.4,1.9,0.9,2.7
		s2.2,5.7,1.1,7.3c-1,1.6-1.3-0.8-1.8-1.3C212.3,137,211.4,135.2,211.8,134.9z M210.3,137.6c0-0.6-1-3.5-1-3.9
		c0-0.5,1.5-0.4,1.7,0.2c0.2,0.6-0.3,2,0.4,3.2c0.7,1.1,2.8,2.7,2.8,3.3s-0.5,2-1.2,1.3C212.3,141,210.2,138.2,210.3,137.6z
		 M204.3,155.8c2-2.5,2.6-5.8,3.2-6.3c0.5-0.6,1.9-0.4,2.5-1.1c3-3.8,7.5-7.5,8.1-7.5s-5.5,6-7.3,8.8s-3.8,3.7-4.9,5.3
		c-1,1.6-1.1,3.3-1,3.9c0.2,0.7-2.2-0.1-3,0.4c-0.8,0.6-4.7,2.7-4.7,1.5C197.3,160.2,203.5,156.8,204.3,155.8z M191.1,162
		c0,0.5-1.1,0.6-1.8,0s1.3-1.1,1.8-1C191.8,161.1,191.1,161.4,191.1,162z M195.4,160.8c-0.1,0.8-0.9,2.1-1.6,2
		c-0.7-0.1-1.4-2.3-0.4-2.8C194.3,159.5,195.4,160,195.4,160.8z M194.3,156.7c1.1-0.1-0.4,0.7-2.9,2.1c-2.4,1.4-6.7,3.7-6.5,2.9
		C185.2,160.3,193.2,156.8,194.3,156.7z M126.5,119.5c0,0,0.1-1.3-0.1-2.2c-0.2-0.9,0-1.1,0-1.1s0.4-0.5,0.8-2.9s0.6-5.2,2.3-10.2
		c2.2-6.6,5.7-9,5.7-9s0.7,3.8,0,6.2c-1.3,4.8-1.2,3.4-4,10.7c0,0,2.9-11,2.7-12.1s-1.6,4.7-3.5,10.5c-2.6,8.1-3.6,10.3-3.6,10.3
		L126.5,119.5z M147.7,154.3c-0.3,0.6-1.4,0.9-1.9,0.4s-0.5-1-0.1-1.3C146.1,153.2,148,153.7,147.7,154.3z M138.4,126c0.3,0,1,2,1,4
		s0,3.2,0,3.2s-0.3-4.3-1-5.2C137.6,127.2,138.4,126,138.4,126z M133.1,134.8c-0.4-1-1.1-2.3-1.1-5.1c0-2.7,2.2-9.3,2.2-9.3
		s1.2,1,2.6,6.9c1.4,5.9,1.9,8.4,1.4,11.2c-0.6,2.8-0.9,3.9-0.9,3.9s-1.2-6.5-1.6-9c-0.3-2.5-0.8-4.4-0.8-6c0-1.6-0.9-3.3-0.9-3.3
		s-0.3,1.2-0.3,2.5s0.7,3.9,1.1,7.2c0.4,3.3,0.7,4.3,0.9,5.6c0.3,1.3,0.1,3.7,0.1,3.7S133.5,135.8,133.1,134.8z M137.4,147.7
		c-0.7,0.5-2.1,0.1-2.5-0.3c-0.4-0.5,1-1.1,1.2-1.2C136.2,146.2,138,147.3,137.4,147.7z M140.9,153.2c-0.3-0.2-1-0.8-1-1.3
		s1.1-0.7,1.6-0.2C142,152.1,141.6,153.6,140.9,153.2z M136.6,143.4c0,0,3.9,2,6.3,4.4c2.4,2.4,3.1,5.1,3.1,5.1s-1.7-1.5-4.2-4
		C139.3,146.4,136.6,143.4,136.6,143.4z M161.3,162.6c-2.8-0.7-6.5-2-7.8-3s-8.2-2.3-8.8-2.9c-0.6-0.6,0.5-0.3,1.5-0.3
		c1.1,0,3.1,0,3.7-0.4c0.6-0.4,1,1,2.6,1.9s6,3.9,6.9,3.2s2.2-0.6,3.3,0.2C163.6,162.2,164.1,163.3,161.3,162.6z M160.6,158.3
		c-1-1.2-1.6,2.6-3.1,1.5c-0.5-0.4-2.2-1.9-1.2-2.6c1-0.7,2.5-1.5,3.4-0.8s3.4,1.6,4.8,2c1.5,0.5,3.2,2.3,3,3.1
		C167.3,162.4,161.6,159.4,160.6,158.3z M182.7,169.9c-1.8,1.7-2.1,0.4-3.2,1.6c-1.2,1.2-1.7,1.5-2.7,1.3s1.2-2.6,0.9-4.6
		c-0.3-1.9-5.1-6.1-1.8-6.1C178,162.2,184.5,168.2,182.7,169.9z"/>
	<path class="st1" d="M224.4,109.3c-0.1-0.7-0.3-1.3-0.5-2c-0.4,0.5-0.8,0.9-0.9,1.1C223,108.7,223.9,109.2,224.4,109.3z"/>
	<path class="st1" d="M221.6,103c0.2,0.1,0.7,0.2,1.2,0.3c-0.2-0.6-0.4-1.1-0.6-1.7c-0.1,0.1-0.1,0.2-0.2,0.2
		C221,102.4,221.3,102.8,221.6,103z"/>
	<path class="st1" d="M220.7,145.6c0,0.3,0,0.6,0,1c0.2-0.4,0.3-0.7,0.5-1.1C220.6,144.6,220.7,144.8,220.7,145.6z"/>
	<path class="st1" d="M146.5,168.2h-0.6c0.2,0.1,0.3,0.2,0.4,0.4h0.2L146.5,168.2z"/>
	<path class="st1" d="M149,168.4c0.4,0,0.6,0,0.8,0.1l0.1-0.4c-0.2-0.1-0.5-0.1-0.9-0.1c-1,0.1-1.6,0.6-1.8,1.3
		c0.2,0.1,0.3,0.2,0.5,0.3C147.8,168.9,148.2,168.4,149,168.4z"/>
	<path class="st1" d="M149,169.7v0.4h0.8l0.1,1c0.2,0.1,0.3,0.2,0.5,0.3l-0.1-1.7H149z"/>
	<polygon class="st1" points="153.2,171.3 153.1,170.9 151.6,171 151.3,167.9 150.8,167.9 151.1,171.4 	"/>
	<polygon class="st1" points="154.3,171.2 154,167.7 153.5,167.7 153.8,171.3 	"/>
	<path class="st1" d="M158.2,168.6c0.7,0.2,1,0.5,1.1,0.9c0,0.5-0.4,0.9-1.1,0.9c-0.5,0-0.9-0.1-1.2-0.2l-0.1,0.6
		c0.3,0.2,0.9,0.3,1.4,0.2c1.3-0.1,1.8-0.8,1.8-1.6c-0.1-0.7-0.5-1.1-1.5-1.4c-0.8-0.2-1.1-0.4-1.1-0.9c0-0.3,0.2-0.8,0.9-0.8
		c0.5,0,0.8,0.1,1,0.2l0.2-0.5c-0.2-0.1-0.6-0.2-1.2-0.2c-1,0.1-1.7,0.7-1.6,1.5C156.7,168,157.3,168.4,158.2,168.6z"/>
	<polygon class="st1" points="161.4,167.6 161.6,170.7 162.1,170.7 161.9,167.5 163,167.4 163,167 160.2,167.2 160.3,167.6 	"/>
	<path class="st1" d="M165.1,170.5c0.8-0.1,1.4-0.5,1.3-1.6l-0.1-2.1h-0.5l0.1,2.1c0.1,0.8-0.3,1.2-0.8,1.2s-0.9-0.3-0.9-1.1
		l-0.1-2.1h-0.5l0.1,2.1C163.7,170.2,164.3,170.6,165.1,170.5z"/>
	<path class="st1" d="M168.2,170.3c0.7-0.1,1.3-0.3,1.6-0.6s0.5-0.8,0.4-1.4c0-0.6-0.3-1-0.6-1.2c-0.3-0.3-0.8-0.4-1.5-0.3
		c-0.4,0-0.7,0.1-1,0.1l0.2,3.5C167.6,170.3,167.9,170.3,168.2,170.3z M168.2,167c1-0.1,1.5,0.4,1.6,1.3c0.1,1-0.4,1.5-1.5,1.6
		c-0.2,0-0.4,0-0.5,0l-0.2-2.8C167.7,167.1,167.9,167,168.2,167z"/>
	<polygon class="st1" points="171.6,170 171.3,166.5 170.8,166.5 171.1,170.1 	"/>
	<path class="st1" d="M189.1,169.4h1.1v1.5c-0.2,0.1-0.5,0.1-0.9,0.1c-1.2,0-2-0.8-2-2.1s0.9-2,2.2-2c0.5,0,0.9,0.1,1.2,0.2l0.2-0.5
		c-0.2-0.1-0.7-0.3-1.3-0.3c-1.8-0.1-2.9,1-3,2.5c0,0.8,0.2,1.5,0.7,1.9c0.5,0.5,1.2,0.7,2,0.7c0.7,0,1.3-0.1,1.7-0.2l0.1-2.4
		l-1.8-0.1L189.1,169.4z"/>
	<path class="st1" d="M194.1,170.2c0,0.8-0.4,1.1-0.9,1.1s-0.9-0.4-0.8-1.2l0.1-2.1H192l-0.1,2.1c0,1.1,0.5,1.5,1.3,1.6
		c0.8,0,1.4-0.4,1.5-1.5l0.1-2.1h-0.5L194.1,170.2z"/>
	<path class="st1" d="M197.1,170.3h0.8v1.1c-0.1,0-0.3,0.1-0.6,0.1c-0.9,0-1.4-0.6-1.4-1.5s0.6-1.4,1.5-1.4c0.4,0,0.6,0.1,0.8,0.2
		l0.1-0.4c-0.2-0.1-0.5-0.2-0.9-0.2c-1.3,0-2,0.7-2.1,1.8c0,0.6,0.2,1,0.5,1.3c0.4,0.3,0.8,0.5,1.4,0.5c0.5,0,0.9-0.1,1.2-0.2
		l0.1-1.7h-1.2L197.1,170.3z"/>
	<path class="st1" d="M199.7,168.3h-0.5l-0.1,3.5c0.2-0.1,0.3-0.2,0.5-0.3L199.7,168.3z"/>
	<path class="st1" d="M202.3,168.4h-0.5l-0.1,1.6c0.2-0.1,0.3-0.2,0.5-0.4L202.3,168.4z"/>
	<path class="st1" d="M203.2,168.4v0.6c0.2-0.2,0.5-0.4,0.7-0.5L203.2,168.4z"/>
</g>
</svg>
